<svg width="32" height="32" viewBox="0 0 32 32" fill="none" xmlns="http://www.w3.org/2000/svg">
  <rect width="32" height="32" rx="4" fill="#333333"/>
  <path d="M6 9H10.5C11.9 9 13 9.4 13.7 10.2C14.4 11 14.8 12.1 14.8 13.5C14.8 14.9 14.4 16 13.7 16.8C13 17.6 11.9 18 10.5 18H8.4V23H6V9ZM10.4 16C11.1 16 11.6 15.8 12 15.4C12.4 15 12.6 14.4 12.6 13.5C12.6 12.6 12.4 12 12 11.6C11.6 11.2 11.1 11 10.4 11H8.4V16H10.4Z" fill="white"/>
  <path d="M16 9H22C23.4 9 24.5 9.3 25.3 10C26.1 10.7 26.5 11.6 26.5 12.7C26.5 13.8 26.1 14.7 25.3 15.4C24.5 16.1 23.4 16.4 22 16.4H18.4V23H16V9ZM21.6 14.4C22.3 14.4 22.8 14.3 23.2 14C23.6 13.7 23.8 13.3 23.8 12.7C23.8 12.1 23.6 11.7 23.2 11.4C22.8 11.1 22.3 11 21.6 11H18.4V14.4H21.6Z" fill="#4CD4B0"/>
  <path d="M16.5 19.5L21 14.5L25.5 19.5L21 24.5L16.5 19.5Z" fill="#A2C579"/>
</svg>